<svg xmlns="http://www.w3.org/2000/svg" xmlns:xlink="http://www.w3.org/1999/xlink" version="1.1" data-diagram-type="SEQUENCE" style="width:1307px;height:1187px;background:#FFFFFF;" width="1307px" height="1187px" viewBox="0 0 1307 1187" zoomAndPan="magnify" preserveAspectRatio="none" contentStyleType="text/css"><?plantuml 1.2026.8?><defs/><g font-family="sans-serif" lengthAdjust="spacing"><g class="title" data-source-line="1"><text x="437.661" y="29.966" fill="#000" font-size="14" textLength="430.47" font-weight="700">EXTERNAL_V2 sale - actual receipt and trusted demo transport</text></g><rect x="204.144" y="521.608" width="740.983" height="124.824" fill="none" style="stroke:#000;stroke-width:1.5;"/><rect x="16.285" y="664.432" width="1236.608" height="209.218" fill="none" style="stroke:#000;stroke-width:1.5;"/><g><title>Buyer</title><rect x="28.785" y="129.136" width="8" height="968.456" fill="#000" fill-opacity="0"/><line x1="32.285" y1="129.136" x2="32.285" y2="1097.592" style="stroke:#181818;stroke-width:0.5;stroke-dasharray:5,5;"/></g><g><title>Seller</title><rect x="82.312" y="129.136" width="8" height="968.456" fill="#000" fill-opacity="0"/><line x1="85.812" y1="129.136" x2="85.812" y2="1097.592" style="stroke:#181818;stroke-width:0.5;stroke-dasharray:5,5;"/></g><g><title>Inspector</title><rect x="147.872" y="129.136" width="8" height="968.456" fill="#000" fill-opacity="0"/><line x1="151.372" y1="129.136" x2="151.372" y2="1097.592" style="stroke:#181818;stroke-width:0.5;stroke-dasharray:5,5;"/></g><g><title>Admin</title><rect x="216.644" y="129.136" width="8" height="968.456" fill="#000" fill-opacity="0"/><line x1="220.144" y1="129.136" x2="220.144" y2="1097.592" style="stroke:#181818;stroke-width:0.5;stroke-dasharray:5,5;"/></g><g><title>FastAPI</title><rect x="531.387" y="129.136" width="8" height="968.456" fill="#000" fill-opacity="0"/><line x1="534.887" y1="129.136" x2="534.887" y2="1097.592" style="stroke:#181818;stroke-width:0.5;stroke-dasharray:5,5;"/></g><g><title>PostgreSQL</title><rect x="925.627" y="129.136" width="8" height="968.456" fill="#000" fill-opacity="0"/><line x1="929.127" y1="129.136" x2="929.127" y2="1097.592" style="stroke:#181818;stroke-width:0.5;stroke-dasharray:5,5;"/></g><g><title>Private inspection Storage</title><rect x="1070.297" y="129.136" width="8" height="968.456" fill="#000" fill-opacity="0"/><line x1="1073.797" y1="129.136" x2="1073.797" y2="1097.592" style="stroke:#181818;stroke-width:0.5;stroke-dasharray:5,5;"/></g><g><title>Lifecycle worker</title><rect x="1233.393" y="129.136" width="8" height="968.456" fill="#000" fill-opacity="0"/><line x1="1236.893" y1="129.136" x2="1236.893" y2="1097.592" style="stroke:#181818;stroke-width:0.5;stroke-dasharray:5,5;"/></g><text x="10" y="125.034" fill="#000" font-size="14" textLength="38.57">Buyer</text><ellipse cx="32.285" cy="58.568" rx="8" ry="8" fill="#E2E2F0" style="stroke:#181818;stroke-width:0.5;"/><path d="M32.285,66.568 L32.285,93.568 M19.285,74.568 L45.285,74.568 M32.285,93.568 L19.285,108.568 M32.285,93.568 L45.285,108.568" style="stroke:#181818;stroke-width:0.5;" fill="none"/><text x="64.57" y="125.034" fill="#000" font-size="14" textLength="36.484">Seller</text><ellipse cx="85.812" cy="58.568" rx="8" ry="8" fill="#E2E2F0" style="stroke:#181818;stroke-width:0.5;"/><path d="M85.812,66.568 L85.812,93.568 M72.812,74.568 L98.812,74.568 M85.812,93.568 L72.812,108.568 M85.812,93.568 L98.812,108.568" style="stroke:#181818;stroke-width:0.5;" fill="none"/><text x="117.054" y="125.034" fill="#000" font-size="14" textLength="62.636">Inspector</text><ellipse cx="151.372" cy="58.568" rx="8" ry="8" fill="#E2E2F0" style="stroke:#181818;stroke-width:0.5;"/><path d="M151.372,66.568 L151.372,93.568 M138.372,74.568 L164.372,74.568 M151.372,93.568 L138.372,108.568 M151.372,93.568 L164.372,108.568" style="stroke:#181818;stroke-width:0.5;" fill="none"/><text x="195.689" y="125.034" fill="#000" font-size="14" textLength="42.91">Admin</text><ellipse cx="220.144" cy="58.568" rx="8" ry="8" fill="#E2E2F0" style="stroke:#181818;stroke-width:0.5;"/><path d="M220.144,66.568 L220.144,93.568 M207.144,74.568 L233.144,74.568 M220.144,93.568 L207.144,108.568 M220.144,93.568 L233.144,108.568" style="stroke:#181818;stroke-width:0.5;" fill="none"/><rect x="503.366" y="95.068" width="63.042" height="33.068" fill="#E2E2F0" style="stroke:#181818;stroke-width:0.5;" rx="2.5" ry="2.5"/><text x="510.366" y="117.034" fill="#000" font-size="14" textLength="49.042">FastAPI</text><text x="887.655" y="125.034" fill="#000" font-size="14" textLength="76.944">PostgreSQL</text><path d="M911.127,74.068 C911.127,64.068 929.127,64.068 929.127,64.068 C929.127,64.068 947.127,64.068 947.127,74.068 L947.127,100.068 C947.127,110.068 929.127,110.068 929.127,110.068 C929.127,110.068 911.127,110.068 911.127,100.068 L911.127,74.068" style="stroke:#181818;stroke-width:0.5;" fill="#E2E2F0"/><path d="M911.127,74.068 C911.127,84.068 929.127,84.068 929.127,84.068 C929.127,84.068 947.127,84.068 947.127,74.068" style="stroke:#181818;stroke-width:0.5;" fill="none"/><rect x="980.599" y="95.068" width="186.395" height="33.068" fill="#E2E2F0" style="stroke:#181818;stroke-width:0.5;" rx="2.5" ry="2.5"/><text x="987.599" y="117.034" fill="#000" font-size="14" textLength="172.395">Private inspection Storage</text><rect x="1176.994" y="95.068" width="119.798" height="33.068" fill="#E2E2F0" style="stroke:#181818;stroke-width:0.5;" rx="2.5" ry="2.5"/><text x="1183.994" y="117.034" fill="#000" font-size="14" textLength="105.798">Lifecycle worker</text><text x="10" y="1112.558" fill="#000" font-size="14" textLength="38.57">Buyer</text><ellipse cx="32.285" cy="1125.16" rx="8" ry="8" fill="#E2E2F0" style="stroke:#181818;stroke-width:0.5;"/><path d="M32.285,1133.16 L32.285,1160.16 M19.285,1141.16 L45.285,1141.16 M32.285,1160.16 L19.285,1175.16 M32.285,1160.16 L45.285,1175.16" style="stroke:#181818;stroke-width:0.5;" fill="none"/><text x="64.57" y="1112.558" fill="#000" font-size="14" textLength="36.484">Seller</text><ellipse cx="85.812" cy="1125.16" rx="8" ry="8" fill="#E2E2F0" style="stroke:#181818;stroke-width:0.5;"/><path d="M85.812,1133.16 L85.812,1160.16 M72.812,1141.16 L98.812,1141.16 M85.812,1160.16 L72.812,1175.16 M85.812,1160.16 L98.812,1175.16" style="stroke:#181818;stroke-width:0.5;" fill="none"/><text x="117.054" y="1112.558" fill="#000" font-size="14" textLength="62.636">Inspector</text><ellipse cx="151.372" cy="1125.16" rx="8" ry="8" fill="#E2E2F0" style="stroke:#181818;stroke-width:0.5;"/><path d="M151.372,1133.16 L151.372,1160.16 M138.372,1141.16 L164.372,1141.16 M151.372,1160.16 L138.372,1175.16 M151.372,1160.16 L164.372,1175.16" style="stroke:#181818;stroke-width:0.5;" fill="none"/><text x="195.689" y="1112.558" fill="#000" font-size="14" textLength="42.91">Admin</text><ellipse cx="220.144" cy="1125.16" rx="8" ry="8" fill="#E2E2F0" style="stroke:#181818;stroke-width:0.5;"/><path d="M220.144,1133.16 L220.144,1160.16 M207.144,1141.16 L233.144,1141.16 M220.144,1160.16 L207.144,1175.16 M220.144,1160.16 L233.144,1175.16" style="stroke:#181818;stroke-width:0.5;" fill="none"/><rect x="503.366" y="1097.592" width="63.042" height="33.068" fill="#E2E2F0" style="stroke:#181818;stroke-width:0.5;" rx="2.5" ry="2.5"/><text x="510.366" y="1119.558" fill="#000" font-size="14" textLength="49.042">FastAPI</text><text x="887.655" y="1112.558" fill="#000" font-size="14" textLength="76.944">PostgreSQL</text><path d="M911.127,1126.66 C911.127,1116.66 929.127,1116.66 929.127,1116.66 C929.127,1116.66 947.127,1116.66 947.127,1126.66 L947.127,1152.66 C947.127,1162.66 929.127,1162.66 929.127,1162.66 C929.127,1162.66 911.127,1162.66 911.127,1152.66 L911.127,1126.66" style="stroke:#181818;stroke-width:0.5;" fill="#E2E2F0"/><path d="M911.127,1126.66 C911.127,1136.66 929.127,1136.66 929.127,1136.66 C929.127,1136.66 947.127,1136.66 947.127,1126.66" style="stroke:#181818;stroke-width:0.5;" fill="none"/><rect x="980.599" y="1097.592" width="186.395" height="33.068" fill="#E2E2F0" style="stroke:#181818;stroke-width:0.5;" rx="2.5" ry="2.5"/><text x="987.599" y="1119.558" fill="#000" font-size="14" textLength="172.395">Private inspection Storage</text><rect x="1176.994" y="1097.592" width="119.798" height="33.068" fill="#E2E2F0" style="stroke:#181818;stroke-width:0.5;" rx="2.5" ry="2.5"/><text x="1183.994" y="1119.558" fill="#000" font-size="14" textLength="105.798">Lifecycle worker</text><polygon points="522.887,156.842,532.887,160.842,522.887,164.842,526.887,160.842" fill="#181818" style="stroke:#181818;stroke-width:1;stroke-linejoin:miter;stroke-miterlimit:10;"/><line x1="32.285" y1="160.842" x2="528.887" y2="160.842" style="stroke:#181818;stroke-width:1;"/><text x="39.285" y="155.033" fill="#000" font-size="13" textLength="215.319">quote / create / simulated payment</text><polygon points="917.127,188.548,927.127,192.548,917.127,196.548,921.127,192.548" fill="#181818" style="stroke:#181818;stroke-width:1;stroke-linejoin:miter;stroke-miterlimit:10;"/><line x1="534.887" y1="192.548" x2="923.127" y2="192.548" style="stroke:#181818;stroke-width:1;"/><text x="541.887" y="186.739" fill="#000" font-size="13" textLength="370.24">EXTERNAL_V2 + immutable quote / Payment / Receipt / HELD</text><polygon points="522.887,220.254,532.887,224.254,522.887,228.254,526.887,224.254" fill="#181818" style="stroke:#181818;stroke-width:1;stroke-linejoin:miter;stroke-miterlimit:10;"/><line x1="85.812" y1="224.254" x2="528.887" y2="224.254" style="stroke:#181818;stroke-width:1;"/><text x="92.812" y="218.445" fill="#000" font-size="13" textLength="337.779">validated return address / carrier / tracking TO_CENTER</text><polygon points="917.127,251.96,927.127,255.96,917.127,259.96,921.127,255.96" fill="#181818" style="stroke:#181818;stroke-width:1;stroke-linejoin:miter;stroke-miterlimit:10;"/><line x1="534.887" y1="255.96" x2="923.127" y2="255.96" style="stroke:#181818;stroke-width:1;"/><text x="541.887" y="250.151" fill="#000" font-size="13" textLength="217.568">freeze Seller snapshot / TO_CENTER</text><polygon points="522.887,283.666,532.887,287.666,522.887,291.666,526.887,287.666" fill="#181818" style="stroke:#181818;stroke-width:1;stroke-linejoin:miter;stroke-miterlimit:10;"/><line x1="151.372" y1="287.666" x2="528.887" y2="287.666" style="stroke:#181818;stroke-width:1;"/><text x="158.372" y="281.857" fill="#000" font-size="13" textLength="359.515">canonical actual center receive / start / inspection evidence</text><polygon points="1061.797,315.372,1071.797,319.372,1061.797,323.372,1065.797,319.372" fill="#181818" style="stroke:#181818;stroke-width:1;stroke-linejoin:miter;stroke-miterlimit:10;"/><line x1="534.887" y1="319.372" x2="1067.797" y2="319.372" style="stroke:#181818;stroke-width:1;"/><text x="541.887" y="313.563" fill="#000" font-size="13" textLength="224.666">authorized private inspection photos</text><polygon points="522.887,347.078,532.887,351.078,522.887,355.078,526.887,351.078" fill="#181818" style="stroke:#181818;stroke-width:1;stroke-linejoin:miter;stroke-miterlimit:10;"/><line x1="151.372" y1="351.078" x2="528.887" y2="351.078" style="stroke:#181818;stroke-width:1;"/><text x="158.372" y="345.269" fill="#000" font-size="13" textLength="165.828">final PASS or MINOR_ISSUE</text><polygon points="917.127,378.784,927.127,382.784,917.127,386.784,921.127,382.784" fill="#181818" style="stroke:#181818;stroke-width:1;stroke-linejoin:miter;stroke-miterlimit:10;"/><line x1="534.887" y1="382.784" x2="923.127" y2="382.784" style="stroke:#181818;stroke-width:1;"/><text x="541.887" y="376.975" fill="#000" font-size="13" textLength="267.046">atomic result + certificate + availability +72h</text><polygon points="522.887,410.49,532.887,414.49,522.887,418.49,526.887,414.49" fill="#181818" style="stroke:#181818;stroke-width:1;stroke-linejoin:miter;stroke-miterlimit:10;"/><line x1="32.285" y1="414.49" x2="528.887" y2="414.49" style="stroke:#181818;stroke-width:1;"/><text x="39.285" y="408.681" fill="#000" font-size="13" textLength="241.423">CONFIRM strictly before result deadline</text><polygon points="917.127,442.196,927.127,446.196,917.127,450.196,921.127,446.196" fill="#181818" style="stroke:#181818;stroke-width:1;stroke-linejoin:miter;stroke-miterlimit:10;"/><line x1="534.887" y1="446.196" x2="923.127" y2="446.196" style="stroke:#181818;stroke-width:1;"/><text x="541.887" y="440.387" fill="#000" font-size="13" textLength="257.686">locked fresh DB clock / one Buyer decision</text><polygon points="522.887,473.902,532.887,477.902,522.887,481.902,526.887,477.902" fill="#181818" style="stroke:#181818;stroke-width:1;stroke-linejoin:miter;stroke-miterlimit:10;"/><line x1="151.372" y1="477.902" x2="528.887" y2="477.902" style="stroke:#181818;stroke-width:1;"/><text x="158.372" y="472.093" fill="#000" font-size="13" textLength="186.94">carrier / tracking final dispatch</text><polygon points="917.127,505.608,927.127,509.608,917.127,513.608,921.127,509.608" fill="#181818" style="stroke:#181818;stroke-width:1;stroke-linejoin:miter;stroke-miterlimit:10;"/><line x1="534.887" y1="509.608" x2="923.127" y2="509.608" style="stroke:#181818;stroke-width:1;"/><text x="541.887" y="503.799" fill="#000" font-size="13" textLength="317.785">server-derived TO_BUYER / frozen Buyer destination</text><path d="M204.144,521.608 L270.916,521.608 L270.916,531.314 L260.916,541.314 L204.144,541.314 L204.144,521.608" style="stroke:#000;stroke-width:1.5;" fill="#EEE"/><rect x="204.144" y="521.608" width="740.983" height="124.824" fill="none" style="stroke:#000;stroke-width:1.5;"/><text x="219.144" y="536.505" fill="#000" font-size="13" textLength="21.772" font-weight="700">opt</text><text x="285.916" y="535.367" fill="#000" font-size="11" textLength="225.413" font-weight="700">[Explicitly enabled demo transport event]</text><polygon points="522.887,571.02,532.887,575.02,522.887,579.02,526.887,575.02" fill="#181818" style="stroke:#181818;stroke-width:1;stroke-linejoin:miter;stroke-miterlimit:10;"/><line x1="220.144" y1="575.02" x2="528.887" y2="575.02" style="stroke:#181818;stroke-width:1;"/><text x="227.144" y="569.211" fill="#000" font-size="13" textLength="264.654">trusted DELIVERED identity / shipment / leg</text><polygon points="917.127,602.726,927.127,606.726,917.127,610.726,921.127,606.726" fill="#181818" style="stroke:#181818;stroke-width:1;stroke-linejoin:miter;stroke-miterlimit:10;"/><line x1="534.887" y1="606.726" x2="923.127" y2="606.726" style="stroke:#181818;stroke-width:1;"/><text x="541.887" y="600.917" fill="#000" font-size="13" textLength="283.322">immutable ADMIN_DEMO event at server time</text><polygon points="917.127,634.432,927.127,638.432,917.127,642.432,921.127,638.432" fill="#181818" style="stroke:#181818;stroke-width:1;stroke-linejoin:miter;stroke-miterlimit:10;"/><line x1="534.887" y1="638.432" x2="923.127" y2="638.432" style="stroke:#181818;stroke-width:1;"/><text x="541.887" y="632.623" fill="#000" font-size="13" textLength="292.721">independent receipt deadline = event time +72h</text><path d="M16.285,664.432 L77.844,664.432 L77.844,674.138 L67.844,684.138 L16.285,684.138 L16.285,664.432" style="stroke:#000;stroke-width:1.5;" fill="#EEE"/><rect x="16.285" y="664.432" width="1236.608" height="209.218" fill="none" style="stroke:#000;stroke-width:1.5;"/><text x="31.285" y="679.329" fill="#000" font-size="13" textLength="16.559" font-weight="700">alt</text><text x="92.844" y="678.191" fill="#000" font-size="11" textLength="196.747" font-weight="700">[Actual Buyer receipt after dispatch]</text><polygon points="522.887,713.844,532.887,717.844,522.887,721.844,526.887,717.844" fill="#181818" style="stroke:#181818;stroke-width:1;stroke-linejoin:miter;stroke-miterlimit:10;"/><line x1="32.285" y1="717.844" x2="528.887" y2="717.844" style="stroke:#181818;stroke-width:1;"/><text x="39.285" y="712.035" fill="#000" font-size="13" textLength="256.646">confirm-receipt (event may still be absent)</text><polygon points="917.127,745.55,927.127,749.55,917.127,753.55,921.127,749.55" fill="#181818" style="stroke:#181818;stroke-width:1;stroke-linejoin:miter;stroke-miterlimit:10;"/><line x1="534.887" y1="749.55" x2="923.127" y2="749.55" style="stroke:#181818;stroke-width:1;"/><text x="541.887" y="743.741" fill="#000" font-size="13" textLength="277.927">locked fresh clock / optional existing deadline</text><polygon points="917.127,777.256,927.127,781.256,917.127,785.256,921.127,781.256" fill="#181818" style="stroke:#181818;stroke-width:1;stroke-linejoin:miter;stroke-miterlimit:10;"/><line x1="534.887" y1="781.256" x2="923.127" y2="781.256" style="stroke:#181818;stroke-width:1;"/><text x="541.887" y="775.447" fill="#000" font-size="13" textLength="364.598">actual recipient + atomic one RELEASE / COMPLETED / SOLD</text><line x1="16.285" y1="790.256" x2="1252.893" y2="790.256" style="stroke:#000;stroke-width:1;stroke-dasharray:2,2;"/><text x="21.285" y="804.015" fill="#000" font-size="11" textLength="262.736" font-weight="700">[Eligible AUTO with trusted event and no report]</text><polygon points="940.127,829.944,930.127,833.944,940.127,837.944,936.127,833.944" fill="#181818" style="stroke:#181818;stroke-width:1;stroke-linejoin:miter;stroke-miterlimit:10;"/><line x1="934.127" y1="833.944" x2="1235.893" y2="833.944" style="stroke:#181818;stroke-width:1;"/><text x="946.127" y="828.135" fill="#000" font-size="13" textLength="276.146">bounded no-HTTP scan after receipt deadline</text><polygon points="940.127,861.65,930.127,865.65,940.127,869.65,936.127,865.65" fill="#181818" style="stroke:#181818;stroke-width:1;stroke-linejoin:miter;stroke-miterlimit:10;"/><line x1="934.127" y1="865.65" x2="1235.893" y2="865.65" style="stroke:#181818;stroke-width:1;"/><text x="946.127" y="859.841" fill="#000" font-size="13" textLength="207.649">same service / one AUTO RELEASE</text><polygon points="43.285,907.356,33.285,911.356,43.285,915.356,39.285,911.356" fill="#181818" style="stroke:#181818;stroke-width:1;stroke-linejoin:miter;stroke-miterlimit:10;"/><line x1="37.285" y1="911.356" x2="533.887" y2="911.356" style="stroke:#181818;stroke-width:1;stroke-dasharray:2,2;"/><text x="49.285" y="905.547" fill="#000" font-size="13" textLength="295.854">original charged receipt + committed settlement</text><polygon points="96.812,939.062,86.812,943.062,96.812,947.062,92.812,943.062" fill="#181818" style="stroke:#181818;stroke-width:1;stroke-linejoin:miter;stroke-miterlimit:10;"/><line x1="90.812" y1="943.062" x2="533.887" y2="943.062" style="stroke:#181818;stroke-width:1;stroke-dasharray:2,2;"/><text x="102.812" y="937.253" fill="#000" font-size="13" textLength="252.135">payout1140 / commission60 on item1200</text><polygon points="522.887,970.768,532.887,974.768,522.887,978.768,526.887,974.768" fill="#181818" style="stroke:#181818;stroke-width:1;stroke-linejoin:miter;stroke-miterlimit:10;"/><line x1="32.285" y1="974.768" x2="528.887" y2="974.768" style="stroke:#181818;stroke-width:1;"/><text x="39.285" y="968.959" fill="#000" font-size="13" textLength="211.913">one completed-Order seller review</text><polygon points="917.127,1002.474,927.127,1006.474,917.127,1010.474,921.127,1006.474" fill="#181818" style="stroke:#181818;stroke-width:1;stroke-linejoin:miter;stroke-miterlimit:10;"/><line x1="534.887" y1="1006.474" x2="923.127" y2="1006.474" style="stroke:#181818;stroke-width:1;"/><text x="541.887" y="1000.665" fill="#000" font-size="13" textLength="111.709">persisted C review</text><path d="M501.664,1019.474 L501.664,1082.474 L961.664,1082.474 L961.664,1029.474 L951.664,1019.474 L501.664,1019.474" style="stroke:#181818;stroke-width:0.5;" fill="#FEFFDD"/><path d="M951.664,1019.474 L951.664,1029.474 L961.664,1029.474 L951.664,1019.474" style="stroke:#181818;stroke-width:0.5;" fill="#FEFFDD"/><text x="507.664" y="1038.371" fill="#000" font-size="13" textLength="292.214">Missing report after dispatch blocks later AUTO.</text><text x="507.664" y="1056.077" fill="#000" font-size="13" textLength="408.603">Tracking alone starts neither timer; no new Courier account/photo.</text><text x="507.664" y="1073.783" fill="#000" font-size="13" textLength="439.686">Shared providers, UI/device and deployed scheduler are separate gates.</text><?plantuml-src RLNVR-9647xdhnZTlRJASIHHTPLIjH81HuT40iNahdsAblKOHbdlkhjhSkIlxypQG22NXx2sv-VtpNmRAHg4x9zbjdWOJf--NKDG_A8FIiT66V2eaUe8oXOGVHCY5b1WvVX1sL0x7tlXcMojlAhuGwaQ4--SZG-gGiZP94TFvHkRbTBFQ-yQMuoSSHu-tgM_DnPXemhtGdODfJ81Urm9szqsE_JTEKTZ3WyJBWFbr3qFYufiZqD5qbGh6-5EXJYSJq05u9zUeQ9QgO0mTo6kFUP_J-NJ-FR4wSFSqrP516hZaxEGStornWzYtfrFVQPKejvf1l35-MVqoV9xElPI0z3_Isg06_YlSHny0DgZIeT0LMEKu5khNOKsziIGxSUtRFwMeGkWgcgu2Swp3pDlVVYqw1WRmDTiEkwrM1tpRfMX8gNn61jlGHM5nn2a5EKziUr0oDNFmi1ozZJA7ZZrIJ6bHtp5ZWO8LjLXuoJZqVp0oZ6pLjPPqZnKtMnfBfZzquXj4mIHmUJVDv3ZbWgq6lVvEzWvd6hYndbw5S3UKrLpGIxyh8oIBEUU3_CS-FNzv66sU9ha-MDsqgAAhYBDjGKUQ4PS8zDSSlMSvWBKLf5HAp8KTt3n-_NcdDtHxE5kihZdZZpfQ7Qmmj9vtCShK1M6B9waD4u_SpCCRjZ86oql60rdiPr-TjCKkBkVe_kElBRJWaAjejwSv0hej-Zx1I_dbdCoRxUF_sOBzYwzUqLxI1WY1n54UuvdAljH6nvsQGYjpD-v631VChdGRk6nkhrqZBFfv5ksoCOWj4Q1ZsdVKDqDhy6rEB-fz3Zgmp6JzJJExcTj5kQewmCYLNZkPmkiqKgMWuZjOOS_kmZYr_B7bZt5p0pRqMpRFuXVANDw01BWZ6tjR4c-wk_jVscZLsh70q36CFkWLe7V_NfMvGdd1y9h0Pohm1ya-A-FytBgVTHegaaoNkpdLcPcaKspOPvnmD7iVZxDbepw0F8PYmAoha9cQ4q9sCVb35ueRWuqTVYovbl7uPFCGoTaX-mh4N4Ka_xNvN8EWHUyW-eSyFVEGUu7OOyqTZEUokYAJdoaLjcXHVk6rvKB5bpqHlbrKh0s3Q-dgogAKdh0o3VQKJz5CrgTkX5XTKsyklhjKjHEN8AiqvTBpWyKiRgwlhmyNsKfZMrhWno-F_E5I5uRqRCwuSl9OjNe0oKCH_lFLXJQoPYouIU-PW3k9J7psa9xDb-maZa889U1JwXyPfVbVgkLaOgIL0QmoBHr2-3_4BOili38DKaBbDRCKHmaCPGWEGENzDA9hFhm2HudWm8J2S8shunnEq5HRx1ef4Tsu7RbPkOkrlmlV1PoGBhw7m00?></g></svg>